<svg id="Layer_1" data-name="Layer 1" xmlns="http://www.w3.org/2000/svg" viewBox="0 0 856 1106"><defs><style>.cls-1{fill:#140f1c;}.cls-2,.cls-3{fill:none;}.cls-3{stroke:#000;stroke-miterlimit:10;stroke-width:20px;}</style></defs><polygon class="cls-1" points="421.07 201.01 477.14 323.57 343.84 423.02 224.79 704.98 223.89 707.11 225.36 734.7 156.13 771.33 18.08 1106 0 1106 0 0 506.32 0 421.07 201.01"/><polygon class="cls-1" points="615.39 0 489.18 301.82 442.93 200.7 528.05 0 615.39 0"/><polygon class="cls-1" points="710.46 0 588.5 294.97 518.58 366.09 500.51 326.58 637.08 0 710.46 0"/><polygon class="cls-1" points="813.48 0 552.37 632.93 462.89 736.91 442.43 641.28 538.91 410.53 527.49 385.56 604.13 307.6 605.5 306.21 732.1 0 813.48 0"/><polygon class="cls-1" points="856 0 856 1106 351.66 1106 476.42 800.18 468.14 761.47 568.58 644.75 569.63 643.53 835.1 0 856 0"/><polygon class="cls-1" points="421.57 639.34 446.51 755.94 300.42 925.71 299.36 926.94 226.06 1106 133.69 1106 250.11 822.79 246.02 746.39 332.9 700.42 413.52 501.5 512.49 400.83 517.09 410.89 421.57 639.34"/><polygon class="cls-1" points="503.58 381.36 397.87 488.89 396.48 490.3 317.1 686.16 244.85 724.39 244.11 710.64 360.16 435.8 485.65 342.18 503.58 381.36"/><polygon class="cls-1" points="455.58 798.33 330.05 1106 247.67 1106 316.64 937.53 451.77 780.5 455.58 798.33"/><polygon class="cls-1" points="229.89 819.36 112.07 1106 39.7 1106 171.87 785.63 226.54 756.7 229.89 819.36"/><path class="cls-2" d="M1791.35,820" transform="translate(-1087 12)"/><path class="cls-3" d="M1660.35-286" transform="translate(-1087 12)"/></svg>